<svg width="20" height="20" viewBox="0 0 20 20" fill="none" xmlns="http://www.w3.org/2000/svg">
<path d="M14 14C14.2449 14 14.4813 14.09 14.6644 14.2527C14.8474 14.4155 14.9643 14.6397 14.993 14.883L15 15V19C15 19.2449 14.91 19.4813 14.7473 19.6644C14.5845 19.8474 14.3603 19.9643 14.117 19.993L14 20H6C5.75507 20 5.51866 19.91 5.33563 19.7473C5.15259 19.5845 5.03566 19.3603 5.007 19.117L5 19V15C5.00003 14.7551 5.08996 14.5187 5.25272 14.3356C5.41547 14.1526 5.63975 14.0357 5.883 14.007L6 14H14ZM17 5C17.7956 5 18.5587 5.31607 19.1213 5.87868C19.6839 6.44129 20 7.20435 20 8V15C20 15.5304 19.7893 16.0391 19.4142 16.4142C19.0391 16.7893 18.5304 17 18 17H17V14C17 13.4696 16.7893 12.9609 16.4142 12.5858C16.0391 12.2107 15.5304 12 15 12H5C4.46957 12 3.96086 12.2107 3.58579 12.5858C3.21071 12.9609 3 13.4696 3 14V17H2C1.46957 17 0.960859 16.7893 0.585786 16.4142C0.210714 16.0391 0 15.5304 0 15V8C0 7.20435 0.316071 6.44129 0.87868 5.87868C1.44129 5.31607 2.20435 5 3 5H17ZM15 7H13C12.7451 7.00028 12.5 7.09788 12.3146 7.27285C12.1293 7.44782 12.0178 7.68695 12.0028 7.94139C11.9879 8.19584 12.0707 8.44638 12.2343 8.64183C12.3979 8.83729 12.6299 8.9629 12.883 8.993L13 9H15C15.2549 8.99972 15.5 8.90212 15.6854 8.72715C15.8707 8.55218 15.9822 8.31305 15.9972 8.05861C16.0121 7.80416 15.9293 7.55362 15.7657 7.35817C15.6021 7.16271 15.3701 7.0371 15.117 7.007L15 7ZM15 0C15.2652 0 15.5196 0.105357 15.7071 0.292893C15.8946 0.48043 16 0.734784 16 1V3H4V1C4 0.734784 4.10536 0.48043 4.29289 0.292893C4.48043 0.105357 4.73478 0 5 0H15Z" fill="white"/>
</svg>
